<?xml version="1.0" encoding="utf-8"?>
<!-- Generator: Adobe Illustrator 26.0.1, SVG Export Plug-In . SVG Version: 6.00 Build 0)  -->
<svg version="1.1" id="Layer_1" xmlns="http://www.w3.org/2000/svg" xmlns:xlink="http://www.w3.org/1999/xlink" x="0px" y="0px"
	 viewBox="0 0 200 200" style="enable-background:new 0 0 200 200;" xml:space="preserve">
<style type="text/css">
	.st0{fill:#273C82;}
	.st1{fill:#009AAA;}
	.st2{clip-path:url(#SVGID_00000039815035022155599490000002770677039782117285_);}
	.st3{fill:#FFFFFF;}
	.st4{clip-path:url(#SVGID_00000097501118535767984690000002109946830263653028_);}
</style>
<g>
	<path class="st0" d="M54.29,178.86h-5.55c1-0.85,1.11-1.7,1.11-3.03v-5.6c0-1.35-0.11-2.18-1.11-3.03h3.1
		c0.39,0,0.66-0.05,0.95-0.37v1.57c1.18-0.9,2.81-1.59,5-1.59c3.52,0,5.21,1.54,5.21,4.67v4.36c0,1.33,0.05,2.18,1.08,3.03h-5.52
		c1-0.85,1.08-1.67,1.08-3.03v-3.11c0-2.47-0.53-3.74-2.76-3.74c-2.45,0-3.68,1.3-3.68,3.88v2.98
		C53.18,177.16,53.26,178.01,54.29,178.86"/>
	<path class="st0" d="M76.62,171.92c-0.05-1.81-1.08-2.74-3.08-2.74s-3.05,0.9-3.1,2.74H76.62z M78.28,178.91
		c-1.03,0-2.66,0.32-4.84,0.32c-4.36,0-6.57-2.1-6.57-6.06c0-3.93,2.63-6.37,6.89-6.37c4.21,0,6.42,2.12,6.42,6.21
		c0,0.45-0.03,0.9-0.08,1.38c-0.37-0.24-0.71-0.27-1.08-0.27h-0.21h-8.36c0.03,1.86,1.32,2.68,4.05,2.68c1.84,0,3.37-0.35,4.86-1.25
		v3.45C78.91,178.96,78.57,178.91,78.28,178.91"/>
	<path class="st0" d="M94.77,173.01c0-2.6-1.24-3.96-3.39-3.96c-2.24,0-3.63,1.49-3.63,3.96c0,2.6,1.24,3.98,3.39,3.98
		C93.41,177,94.77,175.46,94.77,173.01 M91.91,166.8c4.08,0,6.36,2.23,6.36,6.22c0,3.72-2.55,6.22-6.1,6.22
		c-2.24,0-3.87-0.53-4.97-1.67c-0.05,1.25-0.37,1.3-1.5,1.3h-2.47c0.9-0.74,1.05-1.59,1.05-2.98v-9.69c0-1.28-0.08-2.1-1.1-3.13
		h4.68c-0.21,0.16-0.24,0.32-0.24,0.56v0.37v4.49C88.65,167.36,90.09,166.8,91.91,166.8"/>
	<path class="st0" d="M105.02,173.2c0,2.34,1.29,3.64,3.55,3.64c2.39,0,3.76-1.43,3.76-3.83c0-2.5-1.24-3.82-3.47-3.82
		C106.44,169.19,105.02,170.62,105.02,173.2 M109.04,166.8c4.44,0,6.89,2.23,6.89,6.22c0,3.74-2.79,6.22-7.63,6.22
		c-4.42,0-6.89-2.26-6.89-6.11C101.42,169.22,104.2,166.8,109.04,166.8"/>
	<path class="st0" d="M125.66,176.84c1.52,0,2.34-0.53,2.34-1.3c0-0.85-0.95-1.17-2.66-1.33c-4.31-0.37-6.42-0.85-6.42-3.61
		c0-2.55,2.21-3.8,6.71-3.8c1.92,0,3.63,0.4,5.1,0.4h0.37l-0.89,3.03c-1.89-0.72-3.68-1.14-5.47-1.14c-1.42,0-2.21,0.56-2.21,1.3
		c0,1.06,1.1,1.04,2.89,1.2c4.16,0.37,6.18,0.96,6.18,3.61c0,2.5-2.21,4.04-6.34,4.04c-1.92,0-3.42-0.34-4.5-0.34
		c-0.32,0-0.66,0.05-1.05,0.16l-0.79-3.69C121.43,176.33,123.66,176.84,125.66,176.84"/>
	<path class="st0" d="M138.87,176.12c0,1.06,0.05,1.86,1.08,2.74h-5.55c0.92-0.74,1.13-1.59,1.13-3.03v-9.64
		c0-1.38-0.18-2.18-1.13-3.13h4.68c-0.19,0.19-0.21,0.42-0.21,0.72v0.21v4.49c0.87-0.96,2.24-1.67,4.5-1.67
		c3.58,0,5.29,1.51,5.29,4.67v4.36c0,1.33,0.05,2.18,1.08,3.03h-5.52c1-0.85,1.08-1.67,1.08-3.03v-3.11c0-2.47-0.53-3.74-2.76-3.74
		c-2.47,0-3.66,1.3-3.66,3.88v2.97V176.12z"/>
	<path class="st0" d="M134.76,89.64c-0.6,0-1.08-0.49-1.08-1.09s0.48-1.09,1.08-1.09c0.6,0,1.08,0.49,1.08,1.09
		S135.36,89.64,134.76,89.64 M133.88,96.42c-0.38,0-0.68-0.31-0.68-0.69s0.3-0.69,0.68-0.69c0.38,0,0.68,0.31,0.68,0.69
		S134.25,96.42,133.88,96.42 M133.88,80.65c0.38,0,0.68,0.31,0.68,0.69c0,0.38-0.3,0.69-0.68,0.69c-0.38,0-0.68-0.31-0.68-0.69
		C133.2,80.96,133.5,80.65,133.88,80.65 M133.66,65.05l-0.28,0.35c-0.02-0.03-0.04-0.06-0.05-0.09L133.66,65.05z M131.82,75.4
		c-0.38,0-0.68-0.31-0.68-0.69c0-0.38,0.3-0.69,0.68-0.69c0.38,0,0.68,0.31,0.68,0.69C132.5,75.09,132.19,75.4,131.82,75.4
		 M131.82,103.05c-0.38,0-0.68-0.31-0.68-0.69c0-0.38,0.3-0.69,0.68-0.69c0.38,0,0.68,0.31,0.68,0.69
		C132.5,102.74,132.19,103.05,131.82,103.05 M129.81,97.54c-0.63,0-1.14-0.52-1.14-1.16s0.51-1.15,1.14-1.15
		c0.63,0,1.14,0.52,1.14,1.15S130.44,97.54,129.81,97.54 M128.11,104.19c-0.48,0-0.88-0.4-0.88-0.88c0-0.49,0.39-0.89,0.88-0.89
		c0.48,0,0.88,0.4,0.88,0.89C128.99,103.79,128.6,104.19,128.11,104.19 M127.23,110.87c-0.38,0-0.68-0.31-0.68-0.69
		c0-0.38,0.3-0.69,0.68-0.69c0.38,0,0.68,0.31,0.68,0.69C127.91,110.57,127.6,110.87,127.23,110.87 M124.31,90.58
		c-1.11,0-2.01-0.91-2.01-2.03c0-1.12,0.9-2.03,2.01-2.03s2.01,0.91,2.01,2.03C126.33,89.67,125.43,90.58,124.31,90.58
		 M124.04,98.95c-1.01,0-1.83-0.83-1.83-1.85c0-1.02,0.82-1.85,1.83-1.85c1.01,0,1.83,0.83,1.83,1.85
		C125.87,98.12,125.05,98.95,124.04,98.95 M123.36,105.7c-0.79,0-1.42-0.64-1.42-1.43s0.63-1.43,1.42-1.43
		c0.78,0,1.42,0.64,1.42,1.43S124.14,105.7,123.36,105.7 M122.26,112.4c-0.6,0-1.1-0.49-1.1-1.11c0-0.61,0.49-1.11,1.1-1.11
		c0.61,0,1.1,0.49,1.1,1.11C123.36,111.9,122.87,112.4,122.26,112.4 M120.97,117.21c-0.38,0-0.68-0.31-0.68-0.69
		c0-0.38,0.3-0.69,0.68-0.69c0.38,0,0.68,0.31,0.68,0.69C121.65,116.9,121.35,117.21,120.97,117.21 M117.07,91.15
		c-1.42,0-2.58-1.16-2.58-2.6c0-1.44,1.15-2.6,2.58-2.6c1.42,0,2.57,1.16,2.57,2.6C119.64,89.98,118.49,91.15,117.07,91.15
		 M117,99.7c-1.09,0-1.97-0.89-1.97-1.99c0-1.1,0.88-1.99,1.97-1.99c1.09,0,1.97,0.89,1.97,1.99C118.97,98.8,118.09,99.7,117,99.7
		 M116.32,107.09c-0.97,0-1.77-0.8-1.77-1.78c0-0.98,0.79-1.78,1.77-1.78c0.98,0,1.77,0.8,1.77,1.78
		C118.09,106.29,117.3,107.09,116.32,107.09 M115.28,113.71c-0.73,0-1.31-0.59-1.31-1.32c0-0.73,0.59-1.33,1.31-1.33
		s1.31,0.59,1.31,1.33C116.59,113.12,116,113.71,115.28,113.71 M114.44,118.19c-0.55,0-0.99-0.45-0.99-1c0-0.55,0.44-1,0.99-1
		c0.55,0,0.99,0.45,0.99,1C115.43,117.74,114.99,118.19,114.44,118.19 M113.4,121.65c-0.38,0-0.68-0.31-0.68-0.69
		c0-0.38,0.31-0.69,0.68-0.69c0.38,0,0.68,0.31,0.68,0.69C114.08,121.34,113.78,121.65,113.4,121.65 M108.89,91.92
		c-1.85,0-3.34-1.51-3.34-3.37c0-1.86,1.5-3.37,3.34-3.37c1.85,0,3.34,1.51,3.34,3.37C112.23,90.41,110.73,91.92,108.89,91.92
		 M109.2,100.35c-1.22,0-2.22-1-2.22-2.24s0.99-2.24,2.22-2.24s2.22,1,2.22,2.24S110.42,100.35,109.2,100.35 M108.8,107.95
		c-1.07,0-1.94-0.88-1.94-1.96c0-1.08,0.87-1.96,1.94-1.96c1.07,0,1.94,0.88,1.94,1.96C110.74,107.07,109.87,107.95,108.8,107.95
		 M108.18,114.82c-0.95,0-1.72-0.78-1.72-1.74c0-0.96,0.77-1.74,1.72-1.74c0.95,0,1.73,0.78,1.73,1.74
		C109.9,114.04,109.13,114.82,108.18,114.82 M107.47,120.21c-0.7,0-1.26-0.57-1.26-1.28s0.57-1.28,1.26-1.28s1.26,0.57,1.26,1.28
		S108.17,120.21,107.47,120.21 M106.83,123.71c-0.38,0-0.68-0.31-0.68-0.69c0-0.38,0.3-0.69,0.68-0.69c0.38,0,0.68,0.31,0.68,0.69
		C107.51,123.4,107.21,123.71,106.83,123.71 M106.83,53.36c0.38,0,0.68,0.31,0.68,0.69c0,0.38-0.3,0.69-0.68,0.69
		c-0.38,0-0.68-0.31-0.68-0.69C106.15,53.67,106.46,53.36,106.83,53.36 M108.74,58.14c0,0.7-0.57,1.28-1.26,1.28
		s-1.26-0.57-1.26-1.28c0-0.71,0.57-1.28,1.26-1.28S108.74,57.43,108.74,58.14 M109.9,64c0,0.96-0.77,1.74-1.73,1.74
		c-0.95,0-1.72-0.78-1.72-1.74c0-0.96,0.77-1.74,1.72-1.74C109.13,62.26,109.9,63.04,109.9,64 M110.74,71.08
		c0,1.08-0.87,1.96-1.94,1.96c-1.07,0-1.94-0.88-1.94-1.96c0-1.08,0.87-1.96,1.94-1.96C109.87,69.12,110.74,70,110.74,71.08
		 M111.41,78.96c0,1.24-0.99,2.24-2.22,2.24s-2.22-1-2.22-2.24c0-1.24,0.99-2.24,2.22-2.24S111.41,77.72,111.41,78.96 M113.4,55.43
		c0.38,0,0.68,0.31,0.68,0.69c0,0.38-0.3,0.69-0.68,0.69c-0.38,0-0.68-0.31-0.68-0.69C112.72,55.73,113.03,55.43,113.4,55.43
		 M113.33,47.82l0.04,0.31l-0.08,0.11L113.33,47.82z M115.43,59.88c0,0.55-0.44,1-0.99,1c-0.55,0-0.99-0.45-0.99-1
		c0-0.55,0.44-1,0.99-1C114.99,58.88,115.43,59.33,115.43,59.88 M116.59,64.69c0,0.73-0.59,1.33-1.31,1.33s-1.31-0.59-1.31-1.33
		s0.59-1.32,1.31-1.32S116.59,63.95,116.59,64.69 M118.09,71.77c0,0.98-0.79,1.78-1.77,1.78c-0.97,0-1.77-0.8-1.77-1.78
		c0-0.98,0.79-1.78,1.77-1.78C117.3,69.98,118.09,70.78,118.09,71.77 M118.97,79.37c0,1.1-0.88,1.99-1.97,1.99
		c-1.09,0-1.97-0.89-1.97-1.99c0-1.1,0.88-1.99,1.97-1.99C118.09,77.38,118.97,78.27,118.97,79.37 M118.5,50.25l0.28-0.22l-0.3,0.38
		L118.5,50.25z M120.97,59.87c0.38,0,0.68,0.31,0.68,0.69c0,0.38-0.3,0.69-0.68,0.69c-0.38,0-0.68-0.31-0.68-0.69
		C120.29,60.18,120.6,59.87,120.97,59.87 M123.36,65.78c0,0.61-0.49,1.11-1.1,1.11c-0.6,0-1.1-0.5-1.1-1.11s0.49-1.11,1.1-1.11
		C122.87,64.67,123.36,65.17,123.36,65.78 M122.53,53.81l-0.17,0.22c-0.02-0.01-0.04-0.03-0.05-0.04L122.53,53.81z M124.78,72.81
		c0,0.79-0.64,1.43-1.42,1.43c-0.79,0-1.42-0.64-1.42-1.43s0.63-1.43,1.42-1.43C124.14,71.37,124.78,72.02,124.78,72.81
		 M125.87,79.97c0,1.02-0.82,1.85-1.83,1.85c-1.01,0-1.83-0.83-1.83-1.85c0-1.02,0.82-1.85,1.83-1.85
		C125.05,78.12,125.87,78.95,125.87,79.97 M127.23,66.2c0.38,0,0.68,0.31,0.68,0.69c0,0.38-0.3,0.69-0.68,0.69
		c-0.38,0-0.68-0.31-0.68-0.69C126.55,66.51,126.85,66.2,127.23,66.2 M128.99,73.77c0,0.49-0.39,0.89-0.88,0.89
		c-0.48,0-0.88-0.4-0.88-0.89s0.39-0.89,0.88-0.89C128.6,72.88,128.99,73.28,128.99,73.77 M131.63,88.55c0,0.86-0.69,1.56-1.55,1.56
		c-0.86,0-1.55-0.7-1.55-1.56c0-0.86,0.69-1.56,1.55-1.56C130.94,86.99,131.63,87.69,131.63,88.55 M129.81,79.54
		c0.63,0,1.14,0.52,1.14,1.15c0,0.64-0.51,1.16-1.14,1.16c-0.63,0-1.14-0.52-1.14-1.16C128.66,80.05,129.18,79.54,129.81,79.54
		 M99.69,92.48c-2.15,0-3.89-1.76-3.89-3.93c0-2.17,1.74-3.93,3.89-3.93c2.15,0,3.89,1.76,3.89,3.93
		C103.59,90.72,101.85,92.48,99.69,92.48 M99.7,100.56c-1.42,0-2.57-1.16-2.57-2.6c0-1.43,1.15-2.6,2.57-2.6
		c1.42,0,2.57,1.16,2.57,2.6C102.28,99.4,101.12,100.56,99.7,100.56 M99.7,108.38c-1.16,0-2.1-0.95-2.1-2.12s0.94-2.12,2.1-2.12
		s2.1,0.95,2.1,2.12S100.86,108.38,99.7,108.38 M99.7,115.1c-0.95,0-1.73-0.78-1.73-1.74c0-0.96,0.77-1.74,1.73-1.74
		c0.95,0,1.72,0.78,1.72,1.74C101.43,114.32,100.65,115.1,99.7,115.1 M99.7,120.74c-0.7,0-1.26-0.57-1.26-1.28s0.57-1.28,1.26-1.28
		c0.7,0,1.26,0.57,1.26,1.28S100.4,120.74,99.7,120.74 M99.7,124.45c-0.38,0-0.68-0.31-0.68-0.69c0-0.38,0.31-0.69,0.68-0.69
		c0.38,0,0.68,0.31,0.68,0.69C100.38,124.15,100.07,124.45,99.7,124.45 M99.7,76.51c1.42,0,2.57,1.16,2.57,2.6
		c0,1.43-1.15,2.6-2.57,2.6c-1.42,0-2.57-1.16-2.57-2.6C97.13,77.68,98.28,76.51,99.7,76.51 M99.7,68.69c1.16,0,2.1,0.95,2.1,2.12
		c0,1.17-0.94,2.12-2.1,2.12s-2.1-0.95-2.1-2.12C97.6,69.64,98.54,68.69,99.7,68.69 M99.7,61.97c0.95,0,1.72,0.78,1.72,1.74
		s-0.77,1.74-1.72,1.74c-0.95,0-1.73-0.78-1.73-1.74S98.75,61.97,99.7,61.97 M99.7,56.34c0.7,0,1.26,0.57,1.26,1.28
		s-0.57,1.28-1.26,1.28c-0.7,0-1.26-0.57-1.26-1.28S99,56.34,99.7,56.34 M99.7,52.62c0.38,0,0.68,0.31,0.68,0.69
		c0,0.38-0.3,0.69-0.68,0.69c-0.38,0-0.68-0.31-0.68-0.69C99.02,52.93,99.32,52.62,99.7,52.62 M90.5,91.92
		c-1.85,0-3.34-1.51-3.34-3.37c0-1.86,1.5-3.37,3.34-3.37s3.34,1.51,3.34,3.37C93.85,90.41,92.35,91.92,90.5,91.92 M92.56,123.71
		c-0.38,0-0.68-0.31-0.68-0.69c0-0.38,0.31-0.69,0.68-0.69s0.68,0.31,0.68,0.69C93.24,123.4,92.94,123.71,92.56,123.71
		 M90.66,118.94c0-0.71,0.57-1.28,1.26-1.28s1.26,0.57,1.26,1.28s-0.57,1.28-1.26,1.28S90.66,119.64,90.66,118.94 M89.49,113.07
		c0-0.96,0.77-1.74,1.72-1.74c0.95,0,1.73,0.78,1.73,1.74c0,0.96-0.77,1.74-1.73,1.74C90.26,114.82,89.49,114.04,89.49,113.07
		 M88.65,105.99c0-1.08,0.87-1.96,1.94-1.96c1.07,0,1.94,0.88,1.94,1.96c0,1.08-0.87,1.96-1.94,1.96
		C89.52,107.95,88.65,107.07,88.65,105.99 M87.98,98.11c0-1.24,0.99-2.24,2.22-2.24c1.23,0,2.22,1,2.22,2.24s-0.99,2.24-2.22,2.24
		C88.97,100.35,87.98,99.35,87.98,98.11 M90.19,76.72c1.23,0,2.22,1,2.22,2.24c0,1.24-0.99,2.24-2.22,2.24c-1.22,0-2.22-1-2.22-2.24
		C87.98,77.72,88.97,76.72,90.19,76.72 M90.59,69.12c1.07,0,1.94,0.88,1.94,1.96c0,1.08-0.87,1.96-1.94,1.96
		c-1.07,0-1.94-0.88-1.94-1.96C88.65,70,89.52,69.12,90.59,69.12 M91.21,62.26c0.95,0,1.73,0.78,1.73,1.74
		c0,0.96-0.77,1.74-1.73,1.74c-0.95,0-1.72-0.78-1.72-1.74C89.49,63.04,90.26,62.26,91.21,62.26 M91.92,56.86
		c0.7,0,1.26,0.57,1.26,1.28c0,0.7-0.57,1.28-1.26,1.28s-1.26-0.57-1.26-1.28C90.66,57.43,91.22,56.86,91.92,56.86 M92.56,53.36
		c0.38,0,0.68,0.31,0.68,0.69c0,0.38-0.3,0.69-0.68,0.69s-0.68-0.31-0.68-0.69C91.88,53.67,92.19,53.36,92.56,53.36 M85.99,56.8
		c-0.38,0-0.68-0.31-0.68-0.69c0-0.38,0.3-0.69,0.68-0.69c0.38,0,0.68,0.31,0.68,0.69C86.67,56.49,86.37,56.8,85.99,56.8
		 M85.99,121.65c-0.38,0-0.68-0.31-0.68-0.69c0-0.38,0.3-0.69,0.68-0.69c0.38,0,0.68,0.31,0.68,0.69
		C86.67,121.34,86.37,121.65,85.99,121.65 M83.96,117.19c0-0.55,0.44-1,0.99-1c0.55,0,0.99,0.45,0.99,1c0,0.55-0.44,1-0.99,1
		C84.41,118.19,83.96,117.74,83.96,117.19 M82.8,112.39c0-0.73,0.59-1.33,1.31-1.33c0.72,0,1.31,0.59,1.31,1.33
		c0,0.73-0.59,1.32-1.31,1.32C83.39,113.71,82.8,113.12,82.8,112.39 M81.3,105.31c0-0.98,0.79-1.78,1.77-1.78s1.77,0.8,1.77,1.78
		c0,0.98-0.79,1.78-1.77,1.78S81.3,106.29,81.3,105.31 M80.42,97.7c0-1.1,0.88-1.99,1.97-1.99c1.09,0,1.97,0.89,1.97,1.99
		c0,1.1-0.88,1.99-1.97,1.99C81.31,99.7,80.42,98.8,80.42,97.7 M82.32,85.95c1.42,0,2.57,1.16,2.57,2.6c0,1.44-1.15,2.6-2.57,2.6
		c-1.42,0-2.58-1.16-2.58-2.6C79.75,87.11,80.9,85.95,82.32,85.95 M82.39,77.38c1.09,0,1.97,0.89,1.97,1.99
		c0,1.1-0.88,1.99-1.97,1.99c-1.09,0-1.97-0.89-1.97-1.99C80.42,78.27,81.31,77.38,82.39,77.38 M83.07,69.98
		c0.98,0,1.77,0.8,1.77,1.78c0,0.98-0.79,1.78-1.77,1.78s-1.77-0.8-1.77-1.78C81.3,70.78,82.09,69.98,83.07,69.98 M84.11,63.36
		c0.72,0,1.31,0.59,1.31,1.32s-0.59,1.33-1.31,1.33c-0.72,0-1.31-0.59-1.31-1.33S83.39,63.36,84.11,63.36 M84.95,58.88
		c0.55,0,0.99,0.45,0.99,1c0,0.55-0.44,1-0.99,1c-0.55,0-0.99-0.45-0.99-1C83.96,59.33,84.41,58.88,84.95,58.88 M78.42,61.24
		c-0.38,0-0.68-0.31-0.68-0.69c0-0.38,0.3-0.69,0.68-0.69c0.38,0,0.68,0.31,0.68,0.69C79.1,60.93,78.79,61.24,78.42,61.24
		 M78.42,117.21c-0.38,0-0.68-0.31-0.68-0.69c0-0.38,0.3-0.69,0.68-0.69c0.38,0,0.68,0.31,0.68,0.69
		C79.1,116.9,78.79,117.21,78.42,117.21 M76.03,111.29c0-0.61,0.49-1.11,1.1-1.11c0.61,0,1.1,0.49,1.1,1.11
		c0,0.61-0.49,1.11-1.1,1.11C76.52,112.4,76.03,111.9,76.03,111.29 M74.61,104.26c0-0.79,0.64-1.43,1.42-1.43s1.42,0.64,1.42,1.43
		s-0.64,1.43-1.42,1.43S74.61,105.06,74.61,104.26 M73.52,97.1c0-1.02,0.82-1.85,1.83-1.85c1.01,0,1.83,0.83,1.83,1.85
		c0,1.02-0.82,1.85-1.83,1.85C74.34,98.95,73.52,98.12,73.52,97.1 M75.08,86.52c1.11,0,2.01,0.91,2.01,2.03
		c0,1.12-0.9,2.03-2.01,2.03s-2.01-0.91-2.01-2.03C73.06,87.43,73.97,86.52,75.08,86.52 M72.16,67.57c-0.38,0-0.68-0.31-0.68-0.69
		c0-0.38,0.3-0.69,0.68-0.69c0.38,0,0.68,0.31,0.68,0.69C72.85,67.27,72.54,67.57,72.16,67.57 M72.16,110.87
		c-0.38,0-0.68-0.31-0.68-0.69c0-0.38,0.3-0.69,0.68-0.69c0.38,0,0.68,0.31,0.68,0.69C72.85,110.57,72.54,110.87,72.16,110.87
		 M70.4,103.3c0-0.49,0.39-0.89,0.88-0.89c0.48,0,0.88,0.4,0.88,0.89c0,0.49-0.39,0.88-0.88,0.88
		C70.79,104.19,70.4,103.79,70.4,103.3 M69.58,97.54c-0.63,0-1.14-0.52-1.14-1.16s0.51-1.15,1.14-1.15c0.63,0,1.14,0.52,1.14,1.15
		S70.22,97.54,69.58,97.54 M67.76,88.55c0-0.86,0.69-1.56,1.55-1.56c0.85,0,1.55,0.7,1.55,1.56c0,0.86-0.69,1.56-1.55,1.56
		C68.45,90.11,67.76,89.41,67.76,88.55 M67.57,103.05c-0.38,0-0.68-0.31-0.68-0.69c0-0.38,0.3-0.69,0.68-0.69
		c0.38,0,0.68,0.31,0.68,0.69C68.25,102.74,67.95,103.05,67.57,103.05 M65.51,82.03c-0.38,0-0.68-0.31-0.68-0.69
		c0-0.38,0.3-0.69,0.68-0.69c0.38,0,0.68,0.31,0.68,0.69C66.19,81.72,65.89,82.03,65.51,82.03 M65.51,96.42
		c-0.38,0-0.68-0.31-0.68-0.69s0.3-0.69,0.68-0.69c0.38,0,0.68,0.31,0.68,0.69S65.89,96.42,65.51,96.42 M63.55,88.55
		c0-0.6,0.48-1.09,1.08-1.09c0.6,0,1.08,0.49,1.08,1.09s-0.48,1.09-1.08,1.09C64.03,89.64,63.55,89.15,63.55,88.55 M67.57,74.03
		c0.38,0,0.68,0.31,0.68,0.69c0,0.38-0.3,0.69-0.68,0.69c-0.38,0-0.68-0.31-0.68-0.69C66.89,74.33,67.2,74.03,67.57,74.03
		 M69.58,79.54c0.63,0,1.14,0.52,1.14,1.15c0,0.64-0.51,1.16-1.14,1.16c-0.63,0-1.14-0.52-1.14-1.16
		C68.44,80.05,68.95,79.54,69.58,79.54 M71.28,72.88c0.48,0,0.88,0.4,0.88,0.89s-0.39,0.89-0.88,0.89c-0.49,0-0.88-0.4-0.88-0.89
		S70.79,72.88,71.28,72.88 M75.35,78.12c1.01,0,1.83,0.83,1.83,1.85c0,1.02-0.82,1.85-1.83,1.85c-1.01,0-1.83-0.83-1.83-1.85
		C73.52,78.95,74.34,78.12,75.35,78.12 M76.03,71.37c0.78,0,1.42,0.64,1.42,1.43s-0.64,1.43-1.42,1.43s-1.42-0.64-1.42-1.43
		S75.25,71.37,76.03,71.37 M77.13,64.67c0.61,0,1.1,0.49,1.1,1.11s-0.49,1.11-1.1,1.11c-0.6,0-1.1-0.5-1.1-1.11
		S76.52,64.67,77.13,64.67 M142.61,73.95l22.96-2.76l-20.6-2.47l13.32-17.07L140.11,66.1l14.36-18.28l-18.11,14.5l14.36-18.28
		l-18.08,14.53l14.39-18.26l-18.08,14.53l14.39-18.26l-18.11,14.5l14.36-18.28l-18.11,14.5l14.3-18.34L118.62,42.6l-2.57-21.83
		l-2.73,23.18l-2.65-23.18l-2.65,23.18l-2.65-23.18l-2.61,23.18l-2.61-23.18l-2.61,23.18l-2.61-23.18l-2.65,23.18l-2.65-23.18
		l-2.65,23.18l-2.73-23.18l-2.51,21.38L65.25,29.03l14.3,18.34l-18.11-14.5l14.36,18.29L57.7,36.66l14.39,18.26L54.01,40.39
		l14.39,18.26L50.31,44.12L64.67,62.4L46.57,47.9l14.36,18.28L42.76,51.74l13.17,16.88L34.44,71.2l22.96,2.76l-22.96,2.68
		l22.96,2.68l-22.96,2.68l22.96,2.64l-22.96,2.64l22.96,2.64l-22.96,2.64l22.96,2.68l-22.96,2.68l22.96,2.68l-22.96,2.76l21.55,2.58
		l-13.36,17.13l18.16-14.44l-14.36,18.29l18.11-14.5l-14.36,18.28l18.08-14.53l-14.39,18.26l18.08-14.53l-14.39,18.26l18.11-14.5
		l-14.36,18.29l18.11-14.5l-14.3,18.34l16.63-13.23l2.5,21.31l2.73-23.18l2.65,23.18l2.65-23.18l2.65,23.18l2.61-23.18l2.61,23.18
		l2.61-23.18l2.61,23.18l2.65-23.18l2.65,23.18l2.65-23.18l2.73,23.18l2.57-21.85l16.86,13.41l-14.3-18.34l18.11,14.5l-14.36-18.29
		l18.11,14.5l-14.39-18.26l18.08,14.53l-14.39-18.26l18.08,14.53l-14.36-18.28l18.11,14.5l-14.36-18.29l18.16,14.44l-13.16-16.86
		l20.75-2.49l-22.96-2.76l22.96-2.68l-22.96-2.68l22.96-2.68l-22.96-2.64l22.96-2.64l-22.96-2.64l22.96-2.64l-22.96-2.68l22.96-2.68
		L142.61,73.95z"/>
</g>
<g>
	<g>
		<polygon id="SVGID_1_" class="st1" points="-82.94,-225.16 117.98,-225.16 120.29,-403 -80.63,-403 		"/>
	</g>
	<g>
		<defs>
			<polygon id="SVGID_00000095310051968701348310000012321567734685712550_" points="-82.94,-225.16 117.98,-225.16 120.29,-403 
				-80.63,-403 			"/>
		</defs>
		<clipPath id="SVGID_00000060740948598248373070000002096185207555826877_">
			<use xlink:href="#SVGID_00000095310051968701348310000012321567734685712550_"  style="overflow:visible;"/>
		</clipPath>
		<g style="clip-path:url(#SVGID_00000060740948598248373070000002096185207555826877_);">
			<path class="st3" d="M-41.72-326.81h12.91v34.93h-7.33v-26.78c0-3.66-1.1-4.91-5.55-4.91 M-32.47-332.36
				c2.77,0,5.02-2.24,5.02-5.02c0-2.77-2.21-5.02-5.02-5.02c-2.77,0-5.02,2.21-5.02,5.02C-37.49-334.6-35.28-332.36-32.47-332.36z
				 M11.1-309.35c0,10.46-6.33,18.57-17.25,18.57s-17.25-8.11-17.25-18.57s6.33-18.57,17.25-18.57S11.1-319.81,11.1-309.35z
				 M3.31-309.35c0-6.9-1.89-15.37-9.46-15.37s-9.46,8.47-9.46,15.37s1.89,15.33,9.46,15.33S3.31-302.45,3.31-309.35z M74.94-291.89
				v-24.58c0-8.57-4.69-11.6-10.78-11.6c-3.27,0-6.22,1.14-11.03,5.48v-23.47H40.23v3.24c4.02,0,5.55,0.78,5.55,4.91v46.02h7.33
				v-26.46c5.23-4.55,7.68-5.02,9.67-5.02c2.81,0,4.77,1.46,4.77,6.9v24.58H74.94z M32.48-311.8c-2.42-1.03-4.41-1.67-6.97-2.56
				c-2.56-0.89-4.37-2.67-4.37-4.98c0-3.56,2.28-5.44,6.22-5.44c1.89,0,3.63,0.28,5.87,1.92c1.1,0.82,2.13,2.49,2.13,5.37h3.24
				v-6.72v-0.21v-0.43c-3.24-1.56-7.11-3.09-11.24-3.09c-6.44,0-12.34,2.45-12.34,9.89c0,4.13,2.67,7.68,7.01,9.57
				c2.63,1.14,4.41,1.6,7.08,2.6c3.13,1.1,5.16,2.88,5.16,5.76c0,2.67-1.1,6.12-6.9,6.12c-3.66,0-8-2.1-11.45-5.8v6.22
				c2.99,1.67,7.33,2.77,11.45,2.77c6.69,0,13.23-3.34,13.23-10.24C40.59-306.86,38.31-309.31,32.48-311.8z"/>
			<path class="st3" d="M-67.72-314.08c0-37.77,31.83-68.79,73.16-73.84c-31.16,6.3-54.7,36.85-54.7,73.84s23.55,67.54,54.7,73.84
				C-35.92-245.29-67.72-276.34-67.72-314.08"/>
			<path class="st3" d="M28.6-240.24c31.16-6.26,54.67-36.85,54.67-73.84s-23.55-67.54-54.67-73.84
				c41.37,5.05,73.2,36.07,73.2,73.84C101.8-276.34,69.97-245.29,28.6-240.24"/>
		</g>
	</g>
</g>
<g>
	<g>
		<polygon id="SVGID_00000140704738061484025850000013055885057127410564_" class="st1" points="230.99,177.89 406.99,177.89 
			409.01,22.11 233.01,22.11 		"/>
	</g>
	<g>
		<defs>
			<polygon id="SVGID_00000103966458357934302120000017985144717180838532_" points="230.99,177.89 406.99,177.89 409.01,22.11 
				233.01,22.11 			"/>
		</defs>
		<clipPath id="SVGID_00000022524072623543134180000000140796573673214848_">
			<use xlink:href="#SVGID_00000103966458357934302120000017985144717180838532_"  style="overflow:visible;"/>
		</clipPath>
		<g style="clip-path:url(#SVGID_00000022524072623543134180000000140796573673214848_);">
			<path class="st3" d="M267.1,88.85h11.31v30.6h-6.42V95.98c0-3.21-0.97-4.3-4.86-4.3 M275.2,83.99c2.43,0,4.39-1.96,4.39-4.39
				c0-2.43-1.93-4.39-4.39-4.39c-2.43,0-4.39,1.93-4.39,4.39C270.8,82.02,272.74,83.99,275.2,83.99z M313.36,104.14
				c0,9.16-5.55,16.26-15.11,16.26c-9.57,0-15.11-7.1-15.11-16.26s5.55-16.26,15.11-16.26S313.36,94.98,313.36,104.14z
				 M306.54,104.14c0-6.04-1.65-13.46-8.29-13.46s-8.29,7.42-8.29,13.46c0,6.04,1.65,13.43,8.29,13.43S306.54,110.19,306.54,104.14z
				 M369.29,119.44V97.91c0-7.51-4.11-10.16-9.44-10.16c-2.87,0-5.45,1-9.66,4.8V71.99h-11.31v2.84c3.52,0,4.86,0.69,4.86,4.3v40.32
				h6.42V96.26c4.58-3.99,6.73-4.39,8.47-4.39c2.46,0,4.17,1.28,4.17,6.04v21.53H369.29z M332.09,101.99
				c-2.12-0.9-3.86-1.46-6.11-2.24c-2.24-0.78-3.83-2.34-3.83-4.36c0-3.12,1.99-4.77,5.45-4.77c1.65,0,3.18,0.25,5.14,1.68
				c0.97,0.72,1.87,2.18,1.87,4.7h2.84v-5.89v-0.19v-0.37c-2.84-1.37-6.23-2.71-9.85-2.71c-5.64,0-10.81,2.15-10.81,8.66
				c0,3.61,2.34,6.73,6.14,8.38c2.31,1,3.86,1.4,6.2,2.27c2.74,0.97,4.52,2.52,4.52,5.05c0,2.34-0.97,5.36-6.04,5.36
				c-3.21,0-7.01-1.84-10.03-5.08v5.45c2.62,1.46,6.42,2.43,10.03,2.43c5.86,0,11.59-2.93,11.59-8.97
				C339.19,106.32,337.2,104.17,332.09,101.99z"/>
			<path class="st3" d="M244.32,100c0-33.09,27.89-60.26,64.09-64.68c-27.29,5.51-47.92,32.28-47.92,64.68s20.63,59.17,47.92,64.68
				C272.17,160.26,244.32,133.06,244.32,100"/>
			<path class="st3" d="M328.69,164.68c27.29-5.48,47.89-32.28,47.89-64.68s-20.63-59.17-47.89-64.68
				c36.24,4.42,64.12,31.59,64.12,64.68C392.81,133.06,364.93,160.26,328.69,164.68"/>
		</g>
	</g>
</g>
</svg>
