<?xml version="1.0" encoding="utf-8"?>
<!-- Generator: Adobe Illustrator 26.0.1, SVG Export Plug-In . SVG Version: 6.00 Build 0)  -->
<svg version="1.1" id="Layer_1" xmlns="http://www.w3.org/2000/svg" xmlns:xlink="http://www.w3.org/1999/xlink" x="0px" y="0px"
	 viewBox="0 0 200 200" style="enable-background:new 0 0 200 200;" xml:space="preserve">
<style type="text/css">
	.st0{fill:#273C82;}
	.st1{fill:#009AAA;}
	.st2{clip-path:url(#SVGID_00000066504859202331322800000002327460800909799832_);}
	.st3{fill:#FFFFFF;}
	.st4{clip-path:url(#SVGID_00000174586718491479281000000015841153552270925697_);}
</style>
<g>
	<path class="st0" d="M-165.71,178.86h-5.55c1-0.85,1.11-1.7,1.11-3.03v-5.6c0-1.35-0.11-2.18-1.11-3.03h3.1
		c0.39,0,0.66-0.05,0.95-0.37v1.57c1.18-0.9,2.81-1.59,5-1.59c3.52,0,5.21,1.54,5.21,4.67v4.36c0,1.33,0.05,2.18,1.08,3.03h-5.52
		c1-0.85,1.08-1.67,1.08-3.03v-3.11c0-2.47-0.53-3.74-2.76-3.74c-2.45,0-3.68,1.3-3.68,3.88v2.98
		C-166.82,177.16-166.74,178.01-165.71,178.86"/>
	<path class="st0" d="M-143.38,171.92c-0.05-1.81-1.08-2.74-3.08-2.74s-3.05,0.9-3.1,2.74H-143.38z M-141.72,178.91
		c-1.03,0-2.66,0.32-4.84,0.32c-4.36,0-6.57-2.1-6.57-6.06c0-3.93,2.63-6.37,6.89-6.37c4.21,0,6.42,2.12,6.42,6.21
		c0,0.45-0.03,0.9-0.08,1.38c-0.37-0.24-0.71-0.27-1.08-0.27h-0.21h-8.36c0.03,1.86,1.32,2.68,4.05,2.68c1.84,0,3.37-0.35,4.86-1.25
		v3.45C-141.09,178.96-141.43,178.91-141.72,178.91"/>
	<path class="st0" d="M-125.23,173.01c0-2.6-1.24-3.96-3.39-3.96c-2.24,0-3.63,1.49-3.63,3.96c0,2.6,1.24,3.98,3.39,3.98
		C-126.59,177-125.23,175.46-125.23,173.01 M-128.09,166.8c4.08,0,6.36,2.23,6.36,6.22c0,3.72-2.55,6.22-6.1,6.22
		c-2.24,0-3.87-0.53-4.97-1.67c-0.05,1.25-0.37,1.3-1.5,1.3h-2.47c0.9-0.74,1.05-1.59,1.05-2.98v-9.69c0-1.28-0.08-2.1-1.1-3.13
		h4.68c-0.21,0.16-0.24,0.32-0.24,0.56v0.37v4.49C-131.35,167.36-129.91,166.8-128.09,166.8"/>
	<path class="st0" d="M-114.98,173.2c0,2.34,1.29,3.64,3.55,3.64c2.39,0,3.76-1.43,3.76-3.83c0-2.5-1.24-3.82-3.47-3.82
		C-113.56,169.19-114.98,170.62-114.98,173.2 M-110.96,166.8c4.44,0,6.89,2.23,6.89,6.22c0,3.74-2.79,6.22-7.63,6.22
		c-4.42,0-6.89-2.26-6.89-6.11C-118.58,169.22-115.8,166.8-110.96,166.8"/>
	<path class="st0" d="M-94.34,176.84c1.52,0,2.34-0.53,2.34-1.3c0-0.85-0.95-1.17-2.66-1.33c-4.31-0.37-6.42-0.85-6.42-3.61
		c0-2.55,2.21-3.8,6.71-3.8c1.92,0,3.63,0.4,5.1,0.4h0.37l-0.89,3.03c-1.89-0.72-3.68-1.14-5.47-1.14c-1.42,0-2.21,0.56-2.21,1.3
		c0,1.06,1.1,1.04,2.89,1.2c4.16,0.37,6.18,0.96,6.18,3.61c0,2.5-2.21,4.04-6.34,4.04c-1.92,0-3.42-0.34-4.5-0.34
		c-0.32,0-0.66,0.05-1.05,0.16l-0.79-3.69C-98.57,176.33-96.34,176.84-94.34,176.84"/>
	<path class="st0" d="M-81.13,176.12c0,1.06,0.05,1.86,1.08,2.74h-5.55c0.92-0.74,1.13-1.59,1.13-3.03v-9.64
		c0-1.38-0.18-2.18-1.13-3.13h4.68c-0.19,0.19-0.21,0.42-0.21,0.72v0.21v4.49c0.87-0.96,2.24-1.67,4.5-1.67
		c3.58,0,5.29,1.51,5.29,4.67v4.36c0,1.33,0.05,2.18,1.08,3.03h-5.52c1-0.85,1.08-1.67,1.08-3.03v-3.11c0-2.47-0.53-3.74-2.76-3.74
		c-2.47,0-3.66,1.3-3.66,3.88v2.97V176.12z"/>
	<path class="st0" d="M-85.24,89.64c-0.6,0-1.08-0.49-1.08-1.09s0.48-1.09,1.08-1.09c0.6,0,1.08,0.49,1.08,1.09
		S-84.64,89.64-85.24,89.64 M-86.12,96.42c-0.38,0-0.68-0.31-0.68-0.69s0.3-0.69,0.68-0.69c0.38,0,0.68,0.31,0.68,0.69
		S-85.75,96.42-86.12,96.42 M-86.12,80.65c0.38,0,0.68,0.31,0.68,0.69c0,0.38-0.3,0.69-0.68,0.69c-0.38,0-0.68-0.31-0.68-0.69
		C-86.8,80.96-86.5,80.65-86.12,80.65 M-86.34,65.05l-0.28,0.35c-0.02-0.03-0.04-0.06-0.05-0.09L-86.34,65.05z M-88.18,75.4
		c-0.38,0-0.68-0.31-0.68-0.69c0-0.38,0.3-0.69,0.68-0.69c0.38,0,0.68,0.31,0.68,0.69C-87.5,75.09-87.81,75.4-88.18,75.4
		 M-88.18,103.05c-0.38,0-0.68-0.31-0.68-0.69c0-0.38,0.3-0.69,0.68-0.69c0.38,0,0.68,0.31,0.68,0.69
		C-87.5,102.74-87.81,103.05-88.18,103.05 M-90.19,97.54c-0.63,0-1.14-0.52-1.14-1.16s0.51-1.15,1.14-1.15
		c0.63,0,1.14,0.52,1.14,1.15S-89.56,97.54-90.19,97.54 M-91.89,104.19c-0.48,0-0.88-0.4-0.88-0.88c0-0.49,0.39-0.89,0.88-0.89
		c0.48,0,0.88,0.4,0.88,0.89C-91.01,103.79-91.4,104.19-91.89,104.19 M-92.77,110.87c-0.38,0-0.68-0.31-0.68-0.69
		c0-0.38,0.3-0.69,0.68-0.69c0.38,0,0.68,0.31,0.68,0.69C-92.09,110.57-92.4,110.87-92.77,110.87 M-95.69,90.58
		c-1.11,0-2.01-0.91-2.01-2.03c0-1.12,0.9-2.03,2.01-2.03s2.01,0.91,2.01,2.03C-93.67,89.67-94.57,90.58-95.69,90.58 M-95.96,98.95
		c-1.01,0-1.83-0.83-1.83-1.85c0-1.02,0.82-1.85,1.83-1.85c1.01,0,1.83,0.83,1.83,1.85C-94.13,98.12-94.95,98.95-95.96,98.95
		 M-96.64,105.7c-0.79,0-1.42-0.64-1.42-1.43s0.63-1.43,1.42-1.43c0.78,0,1.42,0.64,1.42,1.43S-95.86,105.7-96.64,105.7
		 M-97.74,112.4c-0.6,0-1.1-0.49-1.1-1.11c0-0.61,0.49-1.11,1.1-1.11c0.61,0,1.1,0.49,1.1,1.11
		C-96.64,111.9-97.13,112.4-97.74,112.4 M-99.03,117.21c-0.38,0-0.68-0.31-0.68-0.69c0-0.38,0.3-0.69,0.68-0.69
		c0.38,0,0.68,0.31,0.68,0.69C-98.35,116.9-98.65,117.21-99.03,117.21 M-102.93,91.15c-1.42,0-2.58-1.16-2.58-2.6
		c0-1.44,1.15-2.6,2.58-2.6c1.42,0,2.57,1.16,2.57,2.6C-100.36,89.98-101.51,91.15-102.93,91.15 M-103,99.7
		c-1.09,0-1.97-0.89-1.97-1.99c0-1.1,0.88-1.99,1.97-1.99c1.09,0,1.97,0.89,1.97,1.99C-101.03,98.8-101.91,99.7-103,99.7
		 M-103.68,107.09c-0.97,0-1.77-0.8-1.77-1.78c0-0.98,0.79-1.78,1.77-1.78c0.98,0,1.77,0.8,1.77,1.78
		C-101.91,106.29-102.7,107.09-103.68,107.09 M-104.72,113.71c-0.73,0-1.31-0.59-1.31-1.32c0-0.73,0.59-1.33,1.31-1.33
		s1.31,0.59,1.31,1.33C-103.41,113.12-104,113.71-104.72,113.71 M-105.56,118.19c-0.55,0-0.99-0.45-0.99-1c0-0.55,0.44-1,0.99-1
		c0.55,0,0.99,0.45,0.99,1C-104.57,117.74-105.01,118.19-105.56,118.19 M-106.6,121.65c-0.38,0-0.68-0.31-0.68-0.69
		c0-0.38,0.31-0.69,0.68-0.69c0.38,0,0.68,0.31,0.68,0.69C-105.92,121.34-106.22,121.65-106.6,121.65 M-111.11,91.92
		c-1.85,0-3.34-1.51-3.34-3.37c0-1.86,1.5-3.37,3.34-3.37c1.85,0,3.34,1.51,3.34,3.37C-107.77,90.41-109.27,91.92-111.11,91.92
		 M-110.8,100.35c-1.22,0-2.22-1-2.22-2.24s0.99-2.24,2.22-2.24s2.22,1,2.22,2.24S-109.58,100.35-110.8,100.35 M-111.2,107.95
		c-1.07,0-1.94-0.88-1.94-1.96c0-1.08,0.87-1.96,1.94-1.96c1.07,0,1.94,0.88,1.94,1.96C-109.26,107.07-110.13,107.95-111.2,107.95
		 M-111.82,114.82c-0.95,0-1.72-0.78-1.72-1.74c0-0.96,0.77-1.74,1.72-1.74c0.95,0,1.73,0.78,1.73,1.74
		C-110.1,114.04-110.87,114.82-111.82,114.82 M-112.53,120.21c-0.7,0-1.26-0.57-1.26-1.28s0.57-1.28,1.26-1.28s1.26,0.57,1.26,1.28
		S-111.83,120.21-112.53,120.21 M-113.17,123.71c-0.38,0-0.68-0.31-0.68-0.69c0-0.38,0.3-0.69,0.68-0.69c0.38,0,0.68,0.31,0.68,0.69
		C-112.49,123.4-112.79,123.71-113.17,123.71 M-113.17,53.36c0.38,0,0.68,0.31,0.68,0.69c0,0.38-0.3,0.69-0.68,0.69
		c-0.38,0-0.68-0.31-0.68-0.69C-113.85,53.67-113.54,53.36-113.17,53.36 M-111.26,58.14c0,0.7-0.57,1.28-1.26,1.28
		s-1.26-0.57-1.26-1.28c0-0.71,0.57-1.28,1.26-1.28S-111.26,57.43-111.26,58.14 M-110.1,64c0,0.96-0.77,1.74-1.73,1.74
		c-0.95,0-1.72-0.78-1.72-1.74c0-0.96,0.77-1.74,1.72-1.74C-110.87,62.26-110.1,63.04-110.1,64 M-109.26,71.08
		c0,1.08-0.87,1.96-1.94,1.96c-1.07,0-1.94-0.88-1.94-1.96c0-1.08,0.87-1.96,1.94-1.96C-110.13,69.12-109.26,70-109.26,71.08
		 M-108.59,78.96c0,1.24-0.99,2.24-2.22,2.24s-2.22-1-2.22-2.24c0-1.24,0.99-2.24,2.22-2.24S-108.59,77.72-108.59,78.96
		 M-106.6,55.43c0.38,0,0.68,0.31,0.68,0.69c0,0.38-0.3,0.69-0.68,0.69c-0.38,0-0.68-0.31-0.68-0.69
		C-107.28,55.73-106.97,55.43-106.6,55.43 M-106.67,47.82l0.04,0.31l-0.08,0.11L-106.67,47.82z M-104.57,59.88c0,0.55-0.44,1-0.99,1
		c-0.55,0-0.99-0.45-0.99-1c0-0.55,0.44-1,0.99-1C-105.01,58.88-104.57,59.33-104.57,59.88 M-103.41,64.69
		c0,0.73-0.59,1.33-1.31,1.33s-1.31-0.59-1.31-1.33s0.59-1.32,1.31-1.32S-103.41,63.95-103.41,64.69 M-101.91,71.77
		c0,0.98-0.79,1.78-1.77,1.78c-0.97,0-1.77-0.8-1.77-1.78c0-0.98,0.79-1.78,1.77-1.78C-102.7,69.98-101.91,70.78-101.91,71.77
		 M-101.03,79.37c0,1.1-0.88,1.99-1.97,1.99c-1.09,0-1.97-0.89-1.97-1.99c0-1.1,0.88-1.99,1.97-1.99
		C-101.91,77.38-101.03,78.27-101.03,79.37 M-101.5,50.25l0.28-0.22l-0.3,0.38L-101.5,50.25z M-99.03,59.87
		c0.38,0,0.68,0.31,0.68,0.69c0,0.38-0.3,0.69-0.68,0.69c-0.38,0-0.68-0.31-0.68-0.69C-99.71,60.18-99.4,59.87-99.03,59.87
		 M-96.64,65.78c0,0.61-0.49,1.11-1.1,1.11c-0.6,0-1.1-0.5-1.1-1.11s0.49-1.11,1.1-1.11C-97.13,64.67-96.64,65.17-96.64,65.78
		 M-97.47,53.81l-0.17,0.22c-0.02-0.01-0.04-0.03-0.05-0.04L-97.47,53.81z M-95.22,72.81c0,0.79-0.64,1.43-1.42,1.43
		c-0.79,0-1.42-0.64-1.42-1.43s0.63-1.43,1.42-1.43C-95.86,71.37-95.22,72.02-95.22,72.81 M-94.13,79.97c0,1.02-0.82,1.85-1.83,1.85
		c-1.01,0-1.83-0.83-1.83-1.85c0-1.02,0.82-1.85,1.83-1.85C-94.95,78.12-94.13,78.95-94.13,79.97 M-92.77,66.2
		c0.38,0,0.68,0.31,0.68,0.69c0,0.38-0.3,0.69-0.68,0.69c-0.38,0-0.68-0.31-0.68-0.69C-93.45,66.51-93.15,66.2-92.77,66.2
		 M-91.01,73.77c0,0.49-0.39,0.89-0.88,0.89c-0.48,0-0.88-0.4-0.88-0.89s0.39-0.89,0.88-0.89C-91.4,72.88-91.01,73.28-91.01,73.77
		 M-88.37,88.55c0,0.86-0.69,1.56-1.55,1.56c-0.86,0-1.55-0.7-1.55-1.56c0-0.86,0.69-1.56,1.55-1.56
		C-89.06,86.99-88.37,87.69-88.37,88.55 M-90.19,79.54c0.63,0,1.14,0.52,1.14,1.15c0,0.64-0.51,1.16-1.14,1.16
		c-0.63,0-1.14-0.52-1.14-1.16C-91.34,80.05-90.82,79.54-90.19,79.54 M-120.31,92.48c-2.15,0-3.89-1.76-3.89-3.93
		c0-2.17,1.74-3.93,3.89-3.93c2.15,0,3.89,1.76,3.89,3.93C-116.41,90.72-118.15,92.48-120.31,92.48 M-120.3,100.56
		c-1.42,0-2.57-1.16-2.57-2.6c0-1.43,1.15-2.6,2.57-2.6c1.42,0,2.57,1.16,2.57,2.6C-117.72,99.4-118.88,100.56-120.3,100.56
		 M-120.3,108.38c-1.16,0-2.1-0.95-2.1-2.12s0.94-2.12,2.1-2.12s2.1,0.95,2.1,2.12S-119.14,108.38-120.3,108.38 M-120.3,115.1
		c-0.95,0-1.73-0.78-1.73-1.74c0-0.96,0.77-1.74,1.73-1.74c0.95,0,1.72,0.78,1.72,1.74C-118.57,114.32-119.35,115.1-120.3,115.1
		 M-120.3,120.74c-0.7,0-1.26-0.57-1.26-1.28s0.57-1.28,1.26-1.28c0.7,0,1.26,0.57,1.26,1.28S-119.6,120.74-120.3,120.74
		 M-120.3,124.45c-0.38,0-0.68-0.31-0.68-0.69c0-0.38,0.31-0.69,0.68-0.69c0.38,0,0.68,0.31,0.68,0.69
		C-119.62,124.15-119.93,124.45-120.3,124.45 M-120.3,76.51c1.42,0,2.57,1.16,2.57,2.6c0,1.43-1.15,2.6-2.57,2.6
		c-1.42,0-2.57-1.16-2.57-2.6C-122.87,77.68-121.72,76.51-120.3,76.51 M-120.3,68.69c1.16,0,2.1,0.95,2.1,2.12
		c0,1.17-0.94,2.12-2.1,2.12s-2.1-0.95-2.1-2.12C-122.4,69.64-121.46,68.69-120.3,68.69 M-120.3,61.97c0.95,0,1.72,0.78,1.72,1.74
		s-0.77,1.74-1.72,1.74c-0.95,0-1.73-0.78-1.73-1.74S-121.25,61.97-120.3,61.97 M-120.3,56.34c0.7,0,1.26,0.57,1.26,1.28
		s-0.57,1.28-1.26,1.28c-0.7,0-1.26-0.57-1.26-1.28S-121,56.34-120.3,56.34 M-120.3,52.62c0.38,0,0.68,0.31,0.68,0.69
		c0,0.38-0.3,0.69-0.68,0.69c-0.38,0-0.68-0.31-0.68-0.69C-120.98,52.93-120.68,52.62-120.3,52.62 M-129.5,91.92
		c-1.85,0-3.34-1.51-3.34-3.37c0-1.86,1.5-3.37,3.34-3.37s3.34,1.51,3.34,3.37C-126.15,90.41-127.65,91.92-129.5,91.92
		 M-127.44,123.71c-0.38,0-0.68-0.31-0.68-0.69c0-0.38,0.31-0.69,0.68-0.69s0.68,0.31,0.68,0.69
		C-126.76,123.4-127.06,123.71-127.44,123.71 M-129.34,118.94c0-0.71,0.57-1.28,1.26-1.28s1.26,0.57,1.26,1.28s-0.57,1.28-1.26,1.28
		S-129.34,119.64-129.34,118.94 M-130.51,113.07c0-0.96,0.77-1.74,1.72-1.74c0.95,0,1.73,0.78,1.73,1.74c0,0.96-0.77,1.74-1.73,1.74
		C-129.74,114.82-130.51,114.04-130.51,113.07 M-131.35,105.99c0-1.08,0.87-1.96,1.94-1.96c1.07,0,1.94,0.88,1.94,1.96
		c0,1.08-0.87,1.96-1.94,1.96C-130.48,107.95-131.35,107.07-131.35,105.99 M-132.02,98.11c0-1.24,0.99-2.24,2.22-2.24
		c1.23,0,2.22,1,2.22,2.24s-0.99,2.24-2.22,2.24C-131.03,100.35-132.02,99.35-132.02,98.11 M-129.81,76.72c1.23,0,2.22,1,2.22,2.24
		c0,1.24-0.99,2.24-2.22,2.24c-1.22,0-2.22-1-2.22-2.24C-132.02,77.72-131.03,76.72-129.81,76.72 M-129.41,69.12
		c1.07,0,1.94,0.88,1.94,1.96c0,1.08-0.87,1.96-1.94,1.96c-1.07,0-1.94-0.88-1.94-1.96C-131.35,70-130.48,69.12-129.41,69.12
		 M-128.79,62.26c0.95,0,1.73,0.78,1.73,1.74c0,0.96-0.77,1.74-1.73,1.74c-0.95,0-1.72-0.78-1.72-1.74
		C-130.51,63.04-129.74,62.26-128.79,62.26 M-128.08,56.86c0.7,0,1.26,0.57,1.26,1.28c0,0.7-0.57,1.28-1.26,1.28
		s-1.26-0.57-1.26-1.28C-129.34,57.43-128.78,56.86-128.08,56.86 M-127.44,53.36c0.38,0,0.68,0.31,0.68,0.69
		c0,0.38-0.3,0.69-0.68,0.69s-0.68-0.31-0.68-0.69C-128.12,53.67-127.81,53.36-127.44,53.36 M-134.01,56.8
		c-0.38,0-0.68-0.31-0.68-0.69c0-0.38,0.3-0.69,0.68-0.69c0.38,0,0.68,0.31,0.68,0.69C-133.33,56.49-133.63,56.8-134.01,56.8
		 M-134.01,121.65c-0.38,0-0.68-0.31-0.68-0.69c0-0.38,0.3-0.69,0.68-0.69c0.38,0,0.68,0.31,0.68,0.69
		C-133.33,121.34-133.63,121.65-134.01,121.65 M-136.04,117.19c0-0.55,0.44-1,0.99-1c0.55,0,0.99,0.45,0.99,1c0,0.55-0.44,1-0.99,1
		C-135.59,118.19-136.04,117.74-136.04,117.19 M-137.2,112.39c0-0.73,0.59-1.33,1.31-1.33c0.72,0,1.31,0.59,1.31,1.33
		c0,0.73-0.59,1.32-1.31,1.32C-136.61,113.71-137.2,113.12-137.2,112.39 M-138.7,105.31c0-0.98,0.79-1.78,1.77-1.78
		s1.77,0.8,1.77,1.78c0,0.98-0.79,1.78-1.77,1.78S-138.7,106.29-138.7,105.31 M-139.58,97.7c0-1.1,0.88-1.99,1.97-1.99
		c1.09,0,1.97,0.89,1.97,1.99c0,1.1-0.88,1.99-1.97,1.99C-138.69,99.7-139.58,98.8-139.58,97.7 M-137.68,85.95
		c1.42,0,2.57,1.16,2.57,2.6c0,1.44-1.15,2.6-2.57,2.6c-1.42,0-2.58-1.16-2.58-2.6C-140.25,87.11-139.1,85.95-137.68,85.95
		 M-137.61,77.38c1.09,0,1.97,0.89,1.97,1.99c0,1.1-0.88,1.99-1.97,1.99c-1.09,0-1.97-0.89-1.97-1.99
		C-139.58,78.27-138.69,77.38-137.61,77.38 M-136.93,69.98c0.98,0,1.77,0.8,1.77,1.78c0,0.98-0.79,1.78-1.77,1.78
		s-1.77-0.8-1.77-1.78C-138.7,70.78-137.91,69.98-136.93,69.98 M-135.89,63.36c0.72,0,1.31,0.59,1.31,1.32s-0.59,1.33-1.31,1.33
		c-0.72,0-1.31-0.59-1.31-1.33S-136.61,63.36-135.89,63.36 M-135.05,58.88c0.55,0,0.99,0.45,0.99,1c0,0.55-0.44,1-0.99,1
		c-0.55,0-0.99-0.45-0.99-1C-136.04,59.33-135.59,58.88-135.05,58.88 M-141.58,61.24c-0.38,0-0.68-0.31-0.68-0.69
		c0-0.38,0.3-0.69,0.68-0.69c0.38,0,0.68,0.31,0.68,0.69C-140.9,60.93-141.21,61.24-141.58,61.24 M-141.58,117.21
		c-0.38,0-0.68-0.31-0.68-0.69c0-0.38,0.3-0.69,0.68-0.69c0.38,0,0.68,0.31,0.68,0.69C-140.9,116.9-141.21,117.21-141.58,117.21
		 M-143.97,111.29c0-0.61,0.49-1.11,1.1-1.11c0.61,0,1.1,0.49,1.1,1.11c0,0.61-0.49,1.11-1.1,1.11
		C-143.48,112.4-143.97,111.9-143.97,111.29 M-145.39,104.26c0-0.79,0.64-1.43,1.42-1.43s1.42,0.64,1.42,1.43s-0.64,1.43-1.42,1.43
		S-145.39,105.06-145.39,104.26 M-146.48,97.1c0-1.02,0.82-1.85,1.83-1.85c1.01,0,1.83,0.83,1.83,1.85c0,1.02-0.82,1.85-1.83,1.85
		C-145.66,98.95-146.48,98.12-146.48,97.1 M-144.92,86.52c1.11,0,2.01,0.91,2.01,2.03c0,1.12-0.9,2.03-2.01,2.03
		s-2.01-0.91-2.01-2.03C-146.94,87.43-146.03,86.52-144.92,86.52 M-147.84,67.57c-0.38,0-0.68-0.31-0.68-0.69
		c0-0.38,0.3-0.69,0.68-0.69c0.38,0,0.68,0.31,0.68,0.69C-147.15,67.27-147.46,67.57-147.84,67.57 M-147.84,110.87
		c-0.38,0-0.68-0.31-0.68-0.69c0-0.38,0.3-0.69,0.68-0.69c0.38,0,0.68,0.31,0.68,0.69C-147.15,110.57-147.46,110.87-147.84,110.87
		 M-149.6,103.3c0-0.49,0.39-0.89,0.88-0.89c0.48,0,0.88,0.4,0.88,0.89c0,0.49-0.39,0.88-0.88,0.88
		C-149.21,104.19-149.6,103.79-149.6,103.3 M-150.42,97.54c-0.63,0-1.14-0.52-1.14-1.16s0.51-1.15,1.14-1.15
		c0.63,0,1.14,0.52,1.14,1.15S-149.78,97.54-150.42,97.54 M-152.24,88.55c0-0.86,0.69-1.56,1.55-1.56c0.85,0,1.55,0.7,1.55,1.56
		c0,0.86-0.69,1.56-1.55,1.56C-151.55,90.11-152.24,89.41-152.24,88.55 M-152.43,103.05c-0.38,0-0.68-0.31-0.68-0.69
		c0-0.38,0.3-0.69,0.68-0.69c0.38,0,0.68,0.31,0.68,0.69C-151.75,102.74-152.05,103.05-152.43,103.05 M-154.49,82.03
		c-0.38,0-0.68-0.31-0.68-0.69c0-0.38,0.3-0.69,0.68-0.69c0.38,0,0.68,0.31,0.68,0.69C-153.81,81.72-154.11,82.03-154.49,82.03
		 M-154.49,96.42c-0.38,0-0.68-0.31-0.68-0.69s0.3-0.69,0.68-0.69c0.38,0,0.68,0.31,0.68,0.69S-154.11,96.42-154.49,96.42
		 M-156.45,88.55c0-0.6,0.48-1.09,1.08-1.09c0.6,0,1.08,0.49,1.08,1.09s-0.48,1.09-1.08,1.09
		C-155.97,89.64-156.45,89.15-156.45,88.55 M-152.43,74.03c0.38,0,0.68,0.31,0.68,0.69c0,0.38-0.3,0.69-0.68,0.69
		c-0.38,0-0.68-0.31-0.68-0.69C-153.11,74.33-152.8,74.03-152.43,74.03 M-150.42,79.54c0.63,0,1.14,0.52,1.14,1.15
		c0,0.64-0.51,1.16-1.14,1.16c-0.63,0-1.14-0.52-1.14-1.16C-151.56,80.05-151.05,79.54-150.42,79.54 M-148.72,72.88
		c0.48,0,0.88,0.4,0.88,0.89s-0.39,0.89-0.88,0.89c-0.49,0-0.88-0.4-0.88-0.89S-149.21,72.88-148.72,72.88 M-144.65,78.12
		c1.01,0,1.83,0.83,1.83,1.85c0,1.02-0.82,1.85-1.83,1.85c-1.01,0-1.83-0.83-1.83-1.85C-146.48,78.95-145.66,78.12-144.65,78.12
		 M-143.97,71.37c0.78,0,1.42,0.64,1.42,1.43s-0.64,1.43-1.42,1.43s-1.42-0.64-1.42-1.43S-144.75,71.37-143.97,71.37 M-142.87,64.67
		c0.61,0,1.1,0.49,1.1,1.11s-0.49,1.11-1.1,1.11c-0.6,0-1.1-0.5-1.1-1.11S-143.48,64.67-142.87,64.67 M-77.39,73.95l22.96-2.76
		l-20.6-2.47l13.32-17.07L-79.89,66.1l14.36-18.28l-18.11,14.5l14.36-18.28l-18.08,14.53l14.39-18.26l-18.08,14.53l14.39-18.26
		l-18.11,14.5l14.36-18.28l-18.11,14.5l14.3-18.34l-17.16,13.65l-2.57-21.83l-2.73,23.18l-2.65-23.18l-2.65,23.18l-2.65-23.18
		l-2.61,23.18l-2.61-23.18l-2.61,23.18l-2.61-23.18l-2.65,23.18l-2.65-23.18l-2.65,23.18l-2.73-23.18l-2.51,21.38l-16.49-13.12
		l14.3,18.34l-18.11-14.5l14.36,18.29l-18.11-14.5l14.39,18.26l-18.08-14.53l14.39,18.26l-18.08-14.53l14.36,18.28l-18.11-14.5
		l14.36,18.28l-18.16-14.44l13.17,16.88l-21.49,2.58l22.96,2.76l-22.96,2.68l22.96,2.68l-22.96,2.68l22.96,2.64l-22.96,2.64
		l22.96,2.64l-22.96,2.64l22.96,2.68l-22.96,2.68l22.96,2.68l-22.96,2.76l21.55,2.58l-13.36,17.13l18.16-14.44l-14.36,18.29
		l18.11-14.5l-14.36,18.28l18.08-14.53l-14.39,18.26l18.08-14.53l-14.39,18.26l18.11-14.5l-14.36,18.29l18.11-14.5l-14.3,18.34
		l16.63-13.23l2.5,21.31l2.73-23.18l2.65,23.18l2.65-23.18l2.65,23.18l2.61-23.18l2.61,23.18l2.61-23.18l2.61,23.18l2.65-23.18
		l2.65,23.18l2.65-23.18l2.73,23.18l2.57-21.85l16.86,13.41l-14.3-18.34l18.11,14.5l-14.36-18.29l18.11,14.5l-14.39-18.26
		l18.08,14.53l-14.39-18.26l18.08,14.53l-14.36-18.28l18.11,14.5l-14.36-18.29l18.16,14.44l-13.16-16.86l20.75-2.49l-22.96-2.76
		l22.96-2.68l-22.96-2.68l22.96-2.68l-22.96-2.64l22.96-2.64l-22.96-2.64l22.96-2.64l-22.96-2.68l22.96-2.68L-77.39,73.95z"/>
</g>
<g>
	<g>
		<polygon id="SVGID_1_" class="st1" points="-302.94,-225.16 -102.02,-225.16 -99.71,-403 -300.63,-403 		"/>
	</g>
	<g>
		<defs>
			<polygon id="SVGID_00000098933506419373282670000004012674915543080357_" points="-302.94,-225.16 -102.02,-225.16 -99.71,-403 
				-300.63,-403 			"/>
		</defs>
		<clipPath id="SVGID_00000031182699259818330360000009491846225579170482_">
			<use xlink:href="#SVGID_00000098933506419373282670000004012674915543080357_"  style="overflow:visible;"/>
		</clipPath>
		<g style="clip-path:url(#SVGID_00000031182699259818330360000009491846225579170482_);">
			<path class="st3" d="M-261.72-326.81h12.91v34.93h-7.33v-26.78c0-3.66-1.1-4.91-5.55-4.91 M-252.47-332.36
				c2.77,0,5.02-2.24,5.02-5.02c0-2.77-2.21-5.02-5.02-5.02c-2.77,0-5.02,2.21-5.02,5.02C-257.49-334.6-255.28-332.36-252.47-332.36
				z M-208.9-309.35c0,10.46-6.33,18.57-17.25,18.57c-10.92,0-17.25-8.11-17.25-18.57s6.33-18.57,17.25-18.57
				C-215.23-327.92-208.9-319.81-208.9-309.35z M-216.69-309.35c0-6.9-1.89-15.37-9.46-15.37s-9.46,8.47-9.46,15.37
				s1.89,15.33,9.46,15.33C-218.57-294.02-216.69-302.45-216.69-309.35z M-145.06-291.89v-24.58c0-8.57-4.69-11.6-10.78-11.6
				c-3.27,0-6.22,1.14-11.03,5.48v-23.47h-12.91v3.24c4.02,0,5.55,0.78,5.55,4.91v46.02h7.33v-26.46c5.23-4.55,7.68-5.02,9.67-5.02
				c2.81,0,4.77,1.46,4.77,6.9v24.58H-145.06z M-187.52-311.8c-2.42-1.03-4.41-1.67-6.97-2.56c-2.56-0.89-4.37-2.67-4.37-4.98
				c0-3.56,2.28-5.44,6.22-5.44c1.89,0,3.63,0.28,5.87,1.92c1.1,0.82,2.13,2.49,2.13,5.37h3.24v-6.72v-0.21v-0.43
				c-3.24-1.56-7.11-3.09-11.24-3.09c-6.44,0-12.34,2.45-12.34,9.89c0,4.13,2.67,7.68,7.01,9.57c2.63,1.14,4.41,1.6,7.08,2.6
				c3.13,1.1,5.16,2.88,5.16,5.76c0,2.67-1.1,6.12-6.9,6.12c-3.66,0-8-2.1-11.45-5.8v6.22c2.99,1.67,7.33,2.77,11.45,2.77
				c6.69,0,13.23-3.34,13.23-10.24C-179.41-306.86-181.69-309.31-187.52-311.8z"/>
			<path class="st3" d="M-287.72-314.08c0-37.77,31.83-68.79,73.16-73.84c-31.16,6.3-54.7,36.85-54.7,73.84s23.55,67.54,54.7,73.84
				C-255.92-245.29-287.72-276.34-287.72-314.08"/>
			<path class="st3" d="M-191.4-240.24c31.16-6.26,54.67-36.85,54.67-73.84s-23.55-67.54-54.67-73.84
				c41.37,5.05,73.2,36.07,73.2,73.84C-118.2-276.34-150.03-245.29-191.4-240.24"/>
		</g>
	</g>
</g>
<g>
	<g>
		<polygon id="SVGID_00000140704738061484025850000013055885057127410564_" class="st1" points="10.99,177.89 186.99,177.89 
			189.01,22.11 13.01,22.11 		"/>
	</g>
	<g>
		<defs>
			<polygon id="SVGID_00000084501019328395807270000001523930177890152376_" points="10.99,177.89 186.99,177.89 189.01,22.11 
				13.01,22.11 			"/>
		</defs>
		<clipPath id="SVGID_00000125577965715074358840000002029327987247093910_">
			<use xlink:href="#SVGID_00000084501019328395807270000001523930177890152376_"  style="overflow:visible;"/>
		</clipPath>
		<g style="clip-path:url(#SVGID_00000125577965715074358840000002029327987247093910_);">
			<path class="st3" d="M47.1,88.85h11.31v30.6h-6.42V95.98c0-3.21-0.97-4.3-4.86-4.3 M55.2,83.99c2.43,0,4.39-1.96,4.39-4.39
				c0-2.43-1.93-4.39-4.39-4.39c-2.43,0-4.39,1.93-4.39,4.39C50.8,82.02,52.74,83.99,55.2,83.99z M93.36,104.14
				c0,9.16-5.55,16.26-15.11,16.26s-15.11-7.1-15.11-16.26s5.55-16.26,15.11-16.26S93.36,94.98,93.36,104.14z M86.54,104.14
				c0-6.04-1.65-13.46-8.29-13.46s-8.29,7.42-8.29,13.46c0,6.04,1.65,13.43,8.29,13.43C84.89,117.57,86.54,110.19,86.54,104.14z
				 M149.29,119.44V97.91c0-7.51-4.11-10.16-9.44-10.16c-2.87,0-5.45,1-9.66,4.8V71.99h-11.31v2.84c3.52,0,4.86,0.69,4.86,4.3v40.32
				h6.42V96.26c4.58-3.99,6.73-4.39,8.47-4.39c2.46,0,4.17,1.28,4.17,6.04v21.53H149.29z M112.09,101.99
				c-2.12-0.9-3.86-1.46-6.11-2.24s-3.83-2.34-3.83-4.36c0-3.12,1.99-4.77,5.45-4.77c1.65,0,3.18,0.25,5.14,1.68
				c0.97,0.72,1.87,2.18,1.87,4.7h2.84v-5.89v-0.19v-0.37c-2.84-1.37-6.23-2.71-9.85-2.71c-5.64,0-10.81,2.15-10.81,8.66
				c0,3.61,2.34,6.73,6.14,8.38c2.31,1,3.86,1.4,6.2,2.27c2.74,0.97,4.52,2.52,4.52,5.05c0,2.34-0.97,5.36-6.04,5.36
				c-3.21,0-7.01-1.84-10.03-5.08v5.45c2.62,1.46,6.42,2.43,10.03,2.43c5.86,0,11.59-2.93,11.59-8.97
				C119.19,106.32,117.2,104.17,112.09,101.99z"/>
			<path class="st3" d="M24.32,100c0-33.09,27.89-60.26,64.09-64.68C61.12,40.83,40.49,67.6,40.49,100s20.63,59.17,47.92,64.68
				C52.17,160.26,24.32,133.06,24.32,100"/>
			<path class="st3" d="M108.69,164.68c27.29-5.48,47.89-32.28,47.89-64.68s-20.63-59.17-47.89-64.68
				c36.24,4.42,64.12,31.59,64.12,64.68C172.81,133.06,144.93,160.26,108.69,164.68"/>
		</g>
	</g>
</g>
</svg>
